<?xml version="1.0" encoding="utf-8"?>
<!-- Generator: Adobe Illustrator 24.2.0, SVG Export Plug-In . SVG Version: 6.00 Build 0)  -->
<svg version="1.1" id="Calque_1" xmlns="http://www.w3.org/2000/svg" xmlns:xlink="http://www.w3.org/1999/xlink" x="0px" y="0px"
	 viewBox="0 0 540 540" style="enable-background:new 0 0 540 540;" xml:space="preserve">
<style type="text/css">
	.st0{fill:url(#SVGID_1_);}
	.st1{fill:url(#SVGID_2_);}
	.st2{fill:url(#SVGID_3_);}
	.st3{fill:#FFFFFF;}
	.st4{fill:url(#SVGID_4_);}
	.st5{fill:url(#SVGID_5_);}
	.st6{fill:url(#SVGID_6_);}
	.st7{fill:url(#SVGID_7_);}
	.st8{fill:url(#SVGID_8_);}
	.st9{fill:#FF8080;}
</style>
<linearGradient id="SVGID_1_" gradientUnits="userSpaceOnUse" x1="243.4872" y1="299.1303" x2="243.8992" y2="298.6364" gradientTransform="matrix(1 0 0 -1 -5.475158e-10 558)">
	<stop  offset="0" style="stop-color:#C90202"/>
	<stop  offset="0.37" style="stop-color:#C90202"/>
	<stop  offset="1" style="stop-color:#820202"/>
</linearGradient>
<path class="st0" d="M243.7,259.1C243.7,260.3,243.6,258,243.7,259.1L243.7,259.1z"/>
<linearGradient id="SVGID_2_" gradientUnits="userSpaceOnUse" x1="131.2298" y1="244.6593" x2="139.2377" y2="226.2382" gradientTransform="matrix(1 0 0 -1 -5.475158e-10 558)">
	<stop  offset="0" style="stop-color:#C90202"/>
	<stop  offset="0.37" style="stop-color:#C90202"/>
	<stop  offset="1" style="stop-color:#820202"/>
</linearGradient>
<path class="st1" d="M29.1,373.2c0-0.1-0.1-0.2-0.1-0.3c-1.4-2.4-2.6-4.7-3.9-7.2c2.1,4.3,4.1,8.6,6.5,12.8
	C30.7,376.8,29.9,375.1,29.1,373.2z M238.9,267.8c0,0.2,0,0.4,0,0.6c0,0.3,0,0.5,0,0.8s0,0.9,0,1.4c0.2-0.6,0.5-1.2,0.8-1.8
	c0.3-0.6,0-1.7,0-2.5C239.4,266.7,239.1,267.2,238.9,267.8z"/>
<linearGradient id="SVGID_3_" gradientUnits="userSpaceOnUse" x1="238.2762" y1="290.8242" x2="240.3602" y2="288.3092" gradientTransform="matrix(1 0 0 -1 -5.475158e-10 558)">
	<stop  offset="0" style="stop-color:#B50202"/>
	<stop  offset="0.98" style="stop-color:#780202"/>
</linearGradient>
<path class="st2" d="M239.7,266.3c0,0.8,0,1.7,0,2.5c-0.3,0.6-0.5,1.2-0.8,1.8c0-0.5,0-0.9,0-1.4c0-0.5,0-0.6,0-0.8
	c0-0.2,0-0.4,0-0.6C239.2,267.3,239.4,266.8,239.7,266.3z"/>
<path class="st3" d="M285.5,90C185,90,110.3,171.1,118.8,271.1c5.6,66.7,64.3,120.7,131,120.7s116.5-54,111-120.7
	c-2.7-33.3-32-60.4-65.5-60.4c-32,0-55.3,19.7-55.6,55.6c0,0.8,0,1.7,0,2.5l0.5-1.1l0.6-1c0.2-0.3,0.4-0.6,0.6-0.9
	c0.6-1,1.3-1.9,2.1-2.8l0.8-0.9l0.8-0.8l0.8-0.8c0.5-0.5,1.1-1,1.7-1.4c1.8-1.4,3.8-2.7,5.9-3.7l1.1-0.5l1.1-0.5l0.9-0.4
	c1.2-0.4,2.3-0.8,3.5-1.1c0.4-0.1,0.8-0.2,1.1-0.3l0.7-0.2c0.3-0.1,0.6-0.1,0.9-0.2c1.7-0.3,3.5-0.6,5.2-0.7h1.1
	c13.7-0.5,27.5,5.9,32.1,19.2c10.3,30.2-17.5,62.2-57.1,62.1c-34.3-0.1-64.5-27.8-67.3-62.1C171,202.2,222,146.7,290.9,146.7
	c68.9,0,129.1,55.6,134.6,124.1c8.2,102.8-68.4,186.1-171.2,186.1c-102.8,0-193.3-83.3-202-186.1C40.7,133.7,143,22.6,280.8,22.6
	c102.2,0,195,61.1,240.4,148.7c-23-58.6-65.8-107.3-120.9-137.7C345.2,3.2,281.2-7,219.4,4.8C157.6,16.6,101.9,49.6,61.8,98.2
	C21.7,146.7-0.1,207.8,0,270.7c0,8.8,0.4,17.4,1.2,26c4.6,24,12.6,47.2,23.7,68.9c0,0.1,0.1,0.2,0.1,0.2c1.2,2.4,2.5,4.8,3.9,7.2
	c0.1,0.1,0.1,0.2,0.1,0.3c45.5,82.3,134,139.3,230.7,139.3c133.3,0,232.7-108.1,222.1-241.4C473.8,171.1,385.9,90,285.5,90z
	 M243.8,259.1C243.8,260.3,243.7,258,243.8,259.1L243.8,259.1z"/>
<linearGradient id="SVGID_4_" gradientUnits="userSpaceOnUse" x1="10648.8477" y1="-6260.853" x2="10705.9482" y2="-6295.5132" gradientTransform="matrix(1 0 0 -1 -5.475158e-10 558)">
	<stop  offset="0" style="stop-color:#B50202"/>
	<stop  offset="0.98" style="stop-color:#780202"/>
</linearGradient>
<path class="st4" d="M31.6,378.6c-2.3-4.1-4.4-8.5-6.5-12.8c1.2,2.4,2.5,4.8,3.9,7.2c0.1,0.1,0.1,0.2,0.1,0.3
	C29.9,375.1,30.7,376.8,31.6,378.6z"/>
<linearGradient id="SVGID_5_" gradientUnits="userSpaceOnUse" x1="238.2762" y1="290.8242" x2="240.3602" y2="288.3092" gradientTransform="matrix(1 0 0 -1 -5.475158e-10 558)">
	<stop  offset="0" style="stop-color:#B50202"/>
	<stop  offset="0.98" style="stop-color:#780202"/>
</linearGradient>
<path class="st5" d="M239.7,266.3c0,0.8,0,1.7,0,2.5c-0.3,0.6-0.5,1.2-0.8,1.8c0-0.5,0-0.9,0-1.4c0-0.5,0-0.6,0-0.8
	c0-0.2,0-0.4,0-0.6C239.2,267.3,239.4,266.8,239.7,266.3z"/>
<linearGradient id="SVGID_6_" gradientUnits="userSpaceOnUse" x1="238.4007" y1="291.0848" x2="239.4946" y2="289.8898" gradientTransform="matrix(1 0 0 -1 -5.475158e-10 558)">
	<stop  offset="0" style="stop-color:#F4EDEF"/>
	<stop  offset="0.25" style="stop-color:#F1EAEC"/>
	<stop  offset="0.47" style="stop-color:#E6E1E3"/>
	<stop  offset="0.67" style="stop-color:#D4D1D3"/>
	<stop  offset="0.87" style="stop-color:#BCBBBE"/>
	<stop  offset="1" style="stop-color:#A6A8AB"/>
</linearGradient>
<path class="st6" d="M238.9,267.8c0,0.2,0,0.4,0,0.6C238.9,268.2,238.9,268,238.9,267.8v-1.3C238.9,267,238.9,267.4,238.9,267.8z"/>
<linearGradient id="SVGID_7_" gradientUnits="userSpaceOnUse" x1="256.9102" y1="336.3046" x2="257.0836" y2="336.0817" gradientTransform="matrix(1 0 0 -1 -5.475158e-10 558)">
	<stop  offset="0" style="stop-color:#F4EDEF"/>
	<stop  offset="0.25" style="stop-color:#F1EAEC"/>
	<stop  offset="0.47" style="stop-color:#E6E1E3"/>
	<stop  offset="0.67" style="stop-color:#D4D1D3"/>
	<stop  offset="0.87" style="stop-color:#BCBBBE"/>
	<stop  offset="1" style="stop-color:#A6A8AB"/>
</linearGradient>
<path class="st7" d="M259,220.1c-1.4,1.1-2.7,2.2-4,3.5C256.3,222.3,257.6,221.2,259,220.1z"/>
<linearGradient id="SVGID_8_" gradientUnits="userSpaceOnUse" x1="-1.6303" y1="280.0019" x2="535.8293" y2="273.7091" gradientTransform="matrix(1 0 0 -1 -5.475158e-10 558)">
	<stop  offset="0" style="stop-color:#6458ED"/>
	<stop  offset="0.4896" style="stop-color:#4E5CF4"/>
	<stop  offset="1" style="stop-color:#018EDD"/>
</linearGradient>
<path class="st8" d="M521.2,171.2C475.7,83.6,383.1,22.5,280.8,22.5C143,22.5,40.7,133.6,52.3,270.6c8.7,102.8,99.2,186.1,202,186.1
	c102.8,0,179.5-83.3,171.2-186.1c-5.5-68.5-65.8-124.1-134.6-124.1S171,202.1,176.7,270.6c2.9,34.3,33,61.9,67.3,62.1
	c39.6,0.1,67.4-31.9,57.1-62.1c-4.6-13.3-18.4-19.6-32.1-19.2h-1.1c-1.8,0.1-3.5,0.3-5.2,0.7c-0.3,0-0.6,0.1-0.9,0.2l-0.7,0.2
	l-1.1,0.3c-1.2,0.3-2.4,0.7-3.5,1.1l-0.9,0.4l-1.1,0.5l-1.1,0.5c-2.1,1-4.1,2.3-5.9,3.7c-0.6,0.5-1.1,0.9-1.7,1.4l-0.8,0.8l-0.8,0.8
	l-0.8,0.9c-0.7,0.9-1.4,1.9-2.1,2.8l-0.6,0.9l-0.6,1l-0.5,1.1c-0.3,0.6-0.5,1.2-0.8,1.8c0-0.5,0-0.9,0-1.4c0-0.5,0-0.6,0-0.8
	c0-0.2,0-0.4,0-0.6v-1.3c0,0.4,0,0.8,0,1.3c0.3-0.5,0.5-1.1,0.8-1.6c0.4-35.9,23.6-55.6,55.6-55.6c33.5,0,62.8,27,65.5,60.4
	c5.4,66.7-44.3,120.7-111,120.7c-66.7,0-125.4-54-131-120.7c-8.4-100,66.2-181.1,166.7-181.1C386,89.9,474,171,482,271
	c10.7,133.3-88.8,241.4-222.1,241.4c-96.9,0-185.2-57-230.7-139.3c0.8,1.8,1.6,3.6,2.5,5.3c-2.3-4.1-4.4-8.5-6.5-12.8
	c0-0.1-0.1-0.2-0.1-0.2C14,343.6,6,320.4,1.4,296.4c3.8,38.4,15.8,75.6,35.2,109c19.4,33.4,45.7,62.3,77.1,84.6
	c31.5,22.4,67.3,37.7,105.2,45c37.9,7.3,76.9,6.4,114.4-2.6c37.5-9,72.6-26,103-49.8c30.4-23.8,55.3-53.8,73.2-88.1
	c17.8-34.3,28.1-71.9,30.1-110.5c2-38.6-4.2-77.1-18.3-113.1L521.2,171.2z M255,223.5c1.3-1.2,2.6-2.4,4-3.5
	C257.6,221.2,256.3,222.4,255,223.5z"/>
<path class="st9" d="M31.6,378.6c-2.3-4.1-4.4-8.5-6.5-12.8c1.2,2.4,2.5,4.8,3.9,7.2c0.1,0.1,0.1,0.2,0.1,0.3
	C29.9,375.1,30.7,376.8,31.6,378.6z"/>
<path class="st9" d="M243.7,259.1C243.7,260.3,243.6,258,243.7,259.1L243.7,259.1z"/>
</svg>
